<!--basket-->
<svg>
    <svg id="icon-cart" width="20" height="20" viewBox="0 0 20 20" fill="none" xmlns="http://www.w3.org/2000/svg">
  <path d="M15.8335 5.83335H13.3335V5.00002C13.3335 4.11596 12.9823 3.26812 12.3572 2.643C11.7321 2.01788 10.8842 1.66669 10.0002 1.66669C9.11611 1.66669 8.26826 2.01788 7.64314 2.643C7.01802 3.26812 6.66683 4.11596 6.66683 5.00002V5.83335H4.16683C3.94582 5.83335 3.73385 5.92115 3.57757 6.07743C3.42129 6.23371 3.3335 6.44567 3.3335 6.66669V15.8334C3.3335 16.4964 3.59689 17.1323 4.06573 17.6011C4.53457 18.07 5.17045 18.3334 5.8335 18.3334H14.1668C14.8299 18.3334 15.4658 18.07 15.9346 17.6011C16.4034 17.1323 16.6668 16.4964 16.6668 15.8334V6.66669C16.6668 6.44567 16.579 6.23371 16.4227 6.07743C16.2665 5.92115 16.0545 5.83335 15.8335 5.83335ZM8.33349 5.00002C8.33349 4.55799 8.50909 4.13407 8.82165 3.82151C9.13421 3.50895 9.55813 3.33335 10.0002 3.33335C10.4422 3.33335 10.8661 3.50895 11.1787 3.82151C11.4912 4.13407 11.6668 4.55799 11.6668 5.00002V5.83335H8.33349V5.00002ZM15.0002 15.8334C15.0002 16.0544 14.9124 16.2663 14.7561 16.4226C14.5998 16.5789 14.3878 16.6667 14.1668 16.6667H5.8335C5.61248 16.6667 5.40052 16.5789 5.24424 16.4226C5.08796 16.2663 5.00016 16.0544 5.00016 15.8334V7.50002H6.66683V8.33335C6.66683 8.55437 6.75463 8.76633 6.91091 8.92261C7.06719 9.07889 7.27915 9.16669 7.50016 9.16669C7.72117 9.16669 7.93314 9.07889 8.08942 8.92261C8.2457 8.76633 8.33349 8.55437 8.33349 8.33335V7.50002H11.6668V8.33335C11.6668 8.55437 11.7546 8.76633 11.9109 8.92261C12.0672 9.07889 12.2791 9.16669 12.5002 9.16669C12.7212 9.16669 12.9331 9.07889 13.0894 8.92261C13.2457 8.76633 13.3335 8.55437 13.3335 8.33335V7.50002H15.0002V15.8334Z" fill="#111111" />
</svg>

    <!--logo-->
    <svg id="icon-logo" width="24" height="24" viewBox="0 0 24 24" fill="none" xmlns="http://www.w3.org/2000/svg">
    <g clip-path="url(#clip0_4313_555)">
        <path d="M0 0L12.2571 12.1286L24 24V0H0Z" fill="#F6F6F6" />
        <path d="M3.34277 3.17145L12.2999 12.0429L20.7428 20.6572H3.34277V3.17145Z" fill="#F6F6F6" />
        <path d="M20.7994 20.7138L11.8423 11.8423L3.39941 3.22803H20.7994V20.7138Z" fill="#4F2EE8" />
        <path d="M6.94238 6.77142L11.6995 11.5286L17.1424 16.9714H6.94238V6.77142Z" fill="#4F2EE8" />
        <path d="M6.94238 6.77142L11.6995 11.5286L17.1424 16.9714V6.77142H6.94238Z" fill="#F6F6F6" />
    </g>
    <defs>
        <clipPath id="clip0_4313_555">
        <rect width="24" height="24" fill="white" />
        </clipPath>
    </defs>
    </svg>

    <!--switcher-->
    <svg id="icon-switch" viewBox="0 0 40 20" fill="none" xmlns="http://www.w3.org/2000/svg">
    <g filter="url(#filter0_i_54703_101)">
        <path d="M0 10C0 4.47715 4.47715 0 10 0H30C35.5228 0 40 4.47715 40 10C40 15.5228 35.5228 20 30 20H10C4.47715 20 0 15.5228 0 10Z" fill="#4e2ceb"/>
    </g>
    <defs>
        <filter id="filter0_i_54703_101" x="0" y="0" width="41" height="21" filterUnits="userSpaceOnUse" color-interpolation-filters="sRGB">
        <feFlood flood-opacity="0" result="BackgroundImageFix" />
        <feBlend mode="normal" in="SourceGraphic" in2="BackgroundImageFix" result="shape" />
        <feColorMatrix in="SourceAlpha" type="matrix" values="0 0 0 0 0 0 0 0 0 0 0 0 0 0 0 0 0 0 127 0" result="hardAlpha" />
        <feOffset dx="1" dy="1" />
        <feGaussianBlur stdDeviation="1" />
        <feComposite in2="hardAlpha" operator="arithmetic" k2="-1" k3="1" />
        <feColorMatrix type="matrix" values="0 0 0 0 0 0 0 0 0 0 0 0 0 0 0 0 0 0 0.1 0" />
        <feBlend mode="normal" in2="shape" result="effect1_innerShadow_54703_101" />
        </filter>
        <linearGradient id="paint0_linear_54703_101" x1="20" y1="0" x2="20" y2="20" gradientUnits="userSpaceOnUse">
        <stop stop-color="#4F2EE8" />
        <stop offset="1" stop-color="#DCDCDC" />
        </linearGradient>
    </defs>
    </svg>

    <!--menu-->
    <svg id="icon-menu" viewBox="0 0 28 28" fill="none" xmlns="http://www.w3.org/2000/svg">
    <path d="M19.8333 11.6667H3.5" stroke="#111111" stroke-width="2" stroke-linecap="round" stroke-linejoin="round" />
    <path d="M24.5 7H3.5" stroke="#111111" stroke-width="2" stroke-linecap="round" stroke-linejoin="round" />
    <path d="M24.5 16.3333H3.5" stroke="#111111" stroke-width="2" stroke-linecap="round" stroke-linejoin="round" />
    <path d="M19.8333 21H3.5" stroke="#111111" stroke-width="2" stroke-linecap="round" stroke-linejoin="round" />
    </svg>

<svg id="kolo" width="26" height="26" viewBox="0 0 26 26" fill="none" xmlns="http://www.w3.org/2000/svg">
  <g filter="url(#filter0_ddd_54703_103)">
    <path fill-rule="evenodd" clip-rule="evenodd" d="M12 20C16.9706 20 21 15.9706 21 11C21 6.02944 16.9706 2 12 2C7.02944 2 3 6.02944 3 11C3 15.9706 7.02944 20 12 20Z" fill="#f7f7f7" />
  </g>
  <defs>
    <filter id="filter0_ddd_54703_103" x="0" y="0" width="26" height="26" filterUnits="userSpaceOnUse" color-interpolation-filters="sRGB">
      <feFlood flood-opacity="0" result="BackgroundImageFix" />
      <feColorMatrix in="SourceAlpha" type="matrix" values="0 0 0 0 0 0 0 0 0 0 0 0 0 0 0 0 0 0 127 0" result="hardAlpha" />
      <feOffset dx="1" dy="2" />
      <feGaussianBlur stdDeviation="2" />
      <feColorMatrix type="matrix" values="0 0 0 0 0 0 0 0 0 0 0 0 0 0 0 0 0 0 0.1 0" />
      <feBlend mode="normal" in2="BackgroundImageFix" result="effect1_dropShadow_54703_103" />
      <feColorMatrix in="SourceAlpha" type="matrix" values="0 0 0 0 0 0 0 0 0 0 0 0 0 0 0 0 0 0 127 0" result="hardAlpha" />
      <feOffset dy="2" />
      <feGaussianBlur stdDeviation="1" />
      <feColorMatrix type="matrix" values="0 0 0 0 0 0 0 0 0 0 0 0 0 0 0 0 0 0 0.1 0" />
      <feBlend mode="normal" in2="effect1_dropShadow_54703_103" result="effect2_dropShadow_54703_103" />
      <feColorMatrix in="SourceAlpha" type="matrix" values="0 0 0 0 0 0 0 0 0 0 0 0 0 0 0 0 0 0 127 0" result="hardAlpha" />
      <feOffset dx="1" dy="1" />
      <feGaussianBlur stdDeviation="1" />
      <feColorMatrix type="matrix" values="0 0 0 0 0 0 0 0 0 0 0 0 0 0 0 0 0 0 0.1 0" />
      <feBlend mode="normal" in2="effect2_dropShadow_54703_103" result="effect3_dropShadow_54703_103" />
      <feBlend mode="normal" in="SourceGraphic" in2="effect3_dropShadow_54703_103" result="shape" />
    </filter>
    <linearGradient id="paint0_linear_54703_103" x1="12" y1="2" x2="12" y2="20" gradientUnits="userSpaceOnUse">
      <stop stop-color="white" />
      <stop offset="1" stop-color="#F7F7F7" />
    </linearGradient>
  </defs>
</svg>
<!--ukraine-->
<svg id="ukraine" width="20" height="32" viewBox="0 0 20 32" fill="none" xmlns="http://www.w3.org/2000/svg">
  <path d="M9.00548 30.8877C7.26703 29.6252 6.0141 27.7313 5.59123 25.5369H0V2.41992C2.99139 3.86285 5.1527 7.01926 5.38763 10.2959L6.23336 16.7891L5.82615 16.744C4.93344 16.744 4.15035 17.5557 4.15035 18.3523C4.15035 19.1038 4.7455 19.7351 5.52858 19.9004L6.54659 20.1259C8.2224 17.0747 9.17776 14.0836 9.17776 11.1527C9.17776 8.50728 8.81754 5.86191 8.75489 3.15641C8.75489 1.95397 9.24041 0.85674 10.0078 0C10.7909 0.85674 11.2608 1.95397 11.2608 3.15641C11.2608 5.86191 10.8379 8.50728 10.8379 11.1527C10.8379 14.0836 11.7933 17.0747 13.4691 20.1259L14.4871 19.9004C15.2702 19.7351 15.8653 19.0888 15.8653 18.3523C15.8653 17.5406 15.0822 16.744 14.1895 16.744L13.7666 16.8041L14.6124 10.3109C15.0352 7.03429 17.0086 3.86285 20 2.43495V25.5519H14.4244C14.0016 27.7313 12.8113 29.7003 11.0102 30.9028C10.5873 31.1884 10.2271 31.5341 9.99217 32C9.77291 31.5341 9.41269 31.1884 9.00548 30.8877ZM2.64683 17.5557C2.88175 16.6989 3.53955 15.9474 4.38528 15.4814L3.72749 10.1306C3.49256 8.46219 2.77212 6.97417 1.69146 5.75669V17.5406H2.64683V17.5557ZM5.46593 23.9286C5.46593 23.117 5.59123 22.3805 5.76351 21.6289L4.98042 21.4486C3.83712 21.1029 2.9444 20.2461 2.64683 19.1489H1.69146V23.9286H5.46593ZM9.17776 23.9286C9.17776 22.9516 8.39467 22.0949 7.37666 21.9746C7.20438 22.6059 7.07909 23.2372 7.07909 23.9286H9.17776ZM9.17776 25.5519H7.31402C7.61159 26.8145 8.26938 27.9718 9.17776 28.9488V25.5519ZM11.8089 20.5467C11.0885 19.2842 10.4307 17.9615 10.0078 16.5787C9.58496 17.9615 8.92717 19.2842 8.20673 20.5467C8.92717 20.7121 9.52232 21.178 10.0078 21.7041C10.4933 21.178 11.0885 20.7121 11.8089 20.5467ZM12.9522 23.9286C12.9522 23.2372 12.8269 22.6059 12.6547 21.9746C11.6366 22.0949 10.8536 22.9516 10.8536 23.9286H12.9522ZM12.7173 25.5519H10.8536V28.9488C11.7619 27.9568 12.4197 26.8145 12.7173 25.5519ZM18.3399 23.9286V19.1489H17.3845C17.0869 20.2461 16.1785 21.1029 15.0509 21.4486L14.2678 21.6289C14.4401 22.3805 14.5654 23.117 14.5654 23.9286H18.3399ZM18.3399 17.5557V5.75669C17.2592 6.95914 16.4761 8.46219 16.3038 10.1306L15.646 15.4814C16.4918 15.9474 17.1496 16.6839 17.3845 17.5557H18.3399Z" fill="white" />
</svg>

<!--swiper-->
<svg id="swiper" width="12" height="7" viewBox="0 0 12 7" fill="none" xmlns="http://www.w3.org/2000/svg">
  <path d="M5.40832 4.16676C5.48579 4.24486 5.57795 4.30686 5.6795 4.34917C5.78105 4.39147 5.88997 4.41326 5.99998 4.41326C6.10999 4.41326 6.21892 4.39147 6.32046 4.34917C6.42201 4.30686 6.51418 4.24486 6.59165 4.16676L10.4083 0.341757C10.4858 0.26365 10.578 0.201654 10.6795 0.159347C10.7811 0.11704 10.89 0.0952587 11 0.0952587C11.11 0.0952587 11.2189 0.11704 11.3205 0.159347C11.422 0.201654 11.5142 0.26365 11.5917 0.341757C11.7469 0.497893 11.834 0.709103 11.834 0.929257C11.834 1.14941 11.7469 1.36062 11.5917 1.51676L7.76665 5.34176C7.2979 5.80993 6.66249 6.07289 5.99998 6.07289C5.33748 6.07289 4.70207 5.80993 4.23331 5.34176L0.408311 1.51676C0.254357 1.36154 0.167564 1.15204 0.166643 0.933424C0.166009 0.823752 0.18703 0.715033 0.2285 0.613501C0.269971 0.51197 0.331077 0.419624 0.408311 0.341757C0.48578 0.26365 0.577947 0.201654 0.679497 0.159347C0.781046 0.11704 0.889968 0.0952587 0.999978 0.0952587C1.10999 0.0952587 1.21891 0.11704 1.32046 0.159347C1.42201 0.201654 1.51418 0.26365 1.59164 0.341757L5.40832 4.16676Z" fill="#4F2EE8" />
</svg>

<!--close-->
<svg id="close-icon" width="18" height="18" viewBox="0 0 18 18" xmlns="http://www.w3.org/2000/svg">
  <path d="M16 2L2 16M2 2L16 16" stroke = "black" stroke-width="3" stroke-linecap="round" stroke-linejoin="round" />
</svg>

<!--star-->
<svg id="star" width="20" height="20" viewBox="0 0 24 24" xmlns="http://www.w3.org/2000/svg">
  <path d="M10 1.584L12.376 7.716H18.91L13.628 11.668L15.002 17.416L10 14.484L5.002 17.416L6.376 11.668L1.09 7.716H7.624L10 1.584Z" fill="#ff4c00"/>
</svg>

<!--remove-->
<svg id="remove" width="18" height="18" viewBox="0 0 18 18" fill="none" xmlns="http://www.w3.org/2000/svg">
  <path d="M6.75 2.25H11.25M2.25 4.5H15.75M14.25 4.5L13.724 12.3895C13.6451 13.5732 13.6057 14.165 13.35 14.6138C13.1249 15.0088 12.7854 15.3265 12.3762 15.5248C11.9115 15.75 11.3183 15.75 10.132 15.75H7.86799C6.68168 15.75 6.08852 15.75 5.62375 15.5248C5.21457 15.3265 4.87507 15.0088 4.64999 14.6138C4.39433 14.165 4.35488 13.5732 4.27596 12.3895L3.75 4.5M7.5 7.875V11.625M10.5 7.875V11.625" stroke="white" stroke-width="1.5" stroke-linecap="round" stroke-linejoin="round" />
</svg>

</svg>
